<svg width="246" height="167" viewBox="0 0 246 167" fill="none" xmlns="http://www.w3.org/2000/svg">
<g transform="translate(0 21) scale(0.1368)">
<path d="M206.5 0L396.593 329.25H16.4074L206.5 0Z" fill="white"/>
<rect x="418" y="296" width="262" height="143" fill="white"/>
<rect x="561" y="75" width="364" height="143" transform="rotate(90 561 75)" fill="white"/>
<rect x="701" y="185" width="364" height="143" fill="white"/>
<rect x="954.5" y="75" width="364" height="143" transform="rotate(90 954.5 75)" fill="white"/>
<path d="M1453 255C1453 212.431 1438.24 171.178 1411.23 138.272C1384.23 105.365 1346.65 82.8404 1304.9 74.5355C1263.15 66.2306 1219.81 72.6594 1182.26 92.7265C1144.72 112.794 1115.3 145.257 1099.01 184.586C1082.72 223.915 1080.57 267.676 1092.92 308.412C1105.28 349.149 1131.38 384.34 1166.78 407.99C1202.17 431.641 1244.67 442.287 1287.04 438.114C1329.4 433.941 1369.01 415.209 1399.11 385.108L1269 255H1453Z" fill="white"/>
<rect x="1612" y="75" width="364" height="143" transform="rotate(90 1612 75)" fill="white"/>
<circle cx="1705" cy="168" r="93" fill="white"/>
</g>
</svg>
